# 3ds Max Wavefront OBJ Exporter v0.97b - (c)2007 guruware
# File Created: 10.05.2018 18:56:16

mtllib Ball.mtl

#
# object Sphere001
#

v  -1.5738 9.9286 -3.7995
v  -2.9080 9.9286 -2.9080
v  0.0000 10.7466 -0.0000
v  -0.0000 9.9286 -4.1125
v  -3.7995 9.9286 -1.5738
v  -4.1125 9.9286 -0.0000
v  -3.7995 9.9286 1.5738
v  -2.9080 9.9286 2.9080
v  -1.5738 9.9286 3.7995
v  0.0000 9.9286 4.1125
v  1.5738 9.9286 3.7995
v  2.9080 9.9286 2.9080
v  3.7995 9.9286 1.5738
v  4.1125 9.9286 -0.0000
v  3.7995 9.9286 -1.5738
v  2.9080 9.9286 -2.9080
v  -2.9080 7.5990 -7.0205
v  -0.0000 7.5990 -7.5990
v  -5.3733 7.5990 -5.3733
v  -7.0205 7.5990 -2.9080
v  -7.5990 7.5990 -0.0000
v  -7.0205 7.5990 2.9080
v  -5.3733 7.5990 5.3733
v  -2.9080 7.5990 7.0205
v  0.0000 7.5990 7.5990
v  2.9080 7.5990 7.0205
v  5.3733 7.5990 5.3733
v  7.0205 7.5990 2.9080
v  7.5990 7.5990 -0.0000
v  7.0205 7.5990 -2.9080
v  5.3733 7.5990 -5.3733
v  2.9080 7.5990 -7.0205
v  1.5738 9.9286 -3.7995
v  -3.7995 4.1125 -9.1728
v  -0.0000 4.1125 -9.9286
v  -7.0205 4.1125 -7.0205
v  -9.1728 4.1125 -3.7995
v  -9.9286 4.1125 -0.0000
v  -9.1728 4.1125 3.7995
v  -7.0205 4.1125 7.0205
v  -3.7995 4.1125 9.1728
v  0.0000 4.1125 9.9286
v  3.7995 4.1125 9.1728
v  7.0205 4.1125 7.0205
v  9.1728 4.1125 3.7995
v  9.9286 4.1125 -0.0000
v  9.1728 4.1125 -3.7995
v  7.0205 4.1125 -7.0206
v  3.7995 4.1125 -9.1728
v  -4.1125 -0.0000 -9.9286
v  -0.0000 -0.0000 -10.7466
v  -7.5990 -0.0000 -7.5990
v  -9.9286 -0.0000 -4.1125
v  -10.7466 -0.0000 -0.0000
v  -9.9286 -0.0000 4.1125
v  -7.5990 -0.0000 7.5990
v  -4.1125 -0.0000 9.9286
v  0.0000 -0.0000 10.7466
v  4.1125 -0.0000 9.9286
v  7.5990 -0.0000 7.5990
v  9.9286 -0.0000 4.1125
v  10.7466 -0.0000 -0.0000
v  9.9285 -0.0000 -4.1125
v  7.5990 -0.0000 -7.5990
v  4.1125 -0.0000 -9.9286
v  -3.7995 -4.1125 -9.1728
v  -0.0000 -4.1125 -9.9286
v  -7.0205 -4.1125 -7.0205
v  -9.1728 -4.1125 -3.7995
v  -9.9286 -4.1125 -0.0000
v  -9.1728 -4.1125 3.7995
v  -7.0205 -4.1125 7.0205
v  -3.7995 -4.1125 9.1728
v  0.0000 -4.1125 9.9286
v  3.7995 -4.1125 9.1728
v  7.0205 -4.1125 7.0205
v  9.1728 -4.1125 3.7995
v  9.9286 -4.1125 -0.0000
v  9.1728 -4.1125 -3.7995
v  7.0205 -4.1125 -7.0206
v  3.7995 -4.1125 -9.1728
v  -2.9080 -7.5990 -7.0205
v  -0.0000 -7.5990 -7.5990
v  -5.3733 -7.5990 -5.3733
v  -7.0205 -7.5990 -2.9080
v  -7.5990 -7.5990 -0.0000
v  -7.0205 -7.5990 2.9080
v  -5.3733 -7.5990 5.3733
v  -2.9080 -7.5990 7.0205
v  0.0000 -7.5990 7.5990
v  2.9080 -7.5990 7.0205
v  5.3733 -7.5990 5.3733
v  7.0205 -7.5990 2.9080
v  7.5990 -7.5990 -0.0000
v  7.0205 -7.5990 -2.9080
v  5.3733 -7.5990 -5.3733
v  2.9080 -7.5990 -7.0205
v  -1.5738 -9.9286 -3.7995
v  -0.0000 -9.9286 -4.1125
v  -2.9080 -9.9286 -2.9080
v  -3.7995 -9.9286 -1.5738
v  -4.1125 -9.9286 -0.0000
v  -3.7995 -9.9286 1.5738
v  -2.9080 -9.9286 2.9080
v  -1.5738 -9.9286 3.7995
v  0.0000 -9.9286 4.1125
v  1.5738 -9.9286 3.7995
v  2.9080 -9.9286 2.9080
v  3.7995 -9.9286 1.5738
v  4.1125 -9.9286 -0.0000
v  3.7995 -9.9286 -1.5738
v  2.9080 -9.9286 -2.9080
v  1.5738 -9.9286 -3.7995
v  0.0000 -10.7466 -0.0000
# 114 vertices

vn -0.1543 0.9152 -0.3724
vn -0.2850 0.9152 -0.2850
vn 0.0000 1.0000 0.0000
vn -0.0000 0.9152 -0.4031
vn -0.3724 0.9152 -0.1543
vn -0.4031 0.9152 -0.0000
vn -0.3724 0.9152 0.1543
vn -0.2850 0.9152 0.2850
vn -0.1543 0.9152 0.3724
vn 0.0000 0.9152 0.4031
vn 0.1543 0.9152 0.3724
vn 0.2850 0.9152 0.2850
vn 0.3724 0.9152 0.1543
vn 0.4031 0.9152 -0.0000
vn 0.3724 0.9152 -0.1543
vn 0.2850 0.9152 -0.2850
vn -0.2751 0.6952 -0.6641
vn -0.0000 0.6952 -0.7189
vn -0.5083 0.6952 -0.5083
vn -0.6641 0.6952 -0.2751
vn -0.7189 0.6952 -0.0000
vn -0.6641 0.6952 0.2751
vn -0.5083 0.6952 0.5083
vn -0.2751 0.6952 0.6641
vn 0.0000 0.6952 0.7189
vn 0.2751 0.6952 0.6641
vn 0.5083 0.6952 0.5083
vn 0.6641 0.6952 0.2751
vn 0.7189 0.6952 -0.0000
vn 0.6641 0.6952 -0.2751
vn 0.5083 0.6952 -0.5083
vn 0.2751 0.6952 -0.6641
vn 0.1543 0.9152 -0.3724
vn -0.3549 0.3744 -0.8567
vn -0.0000 0.3744 -0.9273
vn -0.6557 0.3744 -0.6557
vn -0.8567 0.3744 -0.3549
vn -0.9273 0.3744 -0.0000
vn -0.8567 0.3744 0.3549
vn -0.6557 0.3744 0.6557
vn -0.3549 0.3744 0.8567
vn 0.0000 0.3744 0.9273
vn 0.3549 0.3744 0.8567
vn 0.6557 0.3744 0.6557
vn 0.8567 0.3744 0.3549
vn 0.9273 0.3744 -0.0000
vn 0.8567 0.3744 -0.3549
vn 0.6557 0.3744 -0.6557
vn 0.3549 0.3744 -0.8567
vn -0.3827 -0.0000 -0.9239
vn -0.0000 0.0000 -1.0000
vn -0.7071 -0.0000 -0.7071
vn -0.9239 0.0000 -0.3827
vn -1.0000 0.0000 -0.0000
vn -0.9239 0.0000 0.3827
vn -0.7071 0.0000 0.7071
vn -0.3827 -0.0000 0.9239
vn 0.0000 -0.0000 1.0000
vn 0.3827 -0.0000 0.9239
vn 0.7071 0.0000 0.7071
vn 0.9239 0.0000 0.3827
vn 1.0000 0.0000 -0.0000
vn 0.9239 0.0000 -0.3827
vn 0.7071 -0.0000 -0.7071
vn 0.3827 -0.0000 -0.9239
vn -0.3549 -0.3744 -0.8567
vn -0.0000 -0.3744 -0.9273
vn -0.6557 -0.3744 -0.6557
vn -0.8567 -0.3744 -0.3549
vn -0.9273 -0.3744 -0.0000
vn -0.8567 -0.3744 0.3549
vn -0.6557 -0.3744 0.6557
vn -0.3549 -0.3744 0.8567
vn 0.0000 -0.3744 0.9273
vn 0.3549 -0.3744 0.8567
vn 0.6557 -0.3744 0.6557
vn 0.8567 -0.3744 0.3549
vn 0.9273 -0.3744 -0.0000
vn 0.8567 -0.3744 -0.3549
vn 0.6557 -0.3744 -0.6557
vn 0.3549 -0.3744 -0.8567
vn -0.2751 -0.6952 -0.6641
vn -0.0000 -0.6952 -0.7189
vn -0.5083 -0.6952 -0.5083
vn -0.6641 -0.6952 -0.2751
vn -0.7189 -0.6952 -0.0000
vn -0.6641 -0.6952 0.2751
vn -0.5083 -0.6952 0.5083
vn -0.2751 -0.6952 0.6641
vn 0.0000 -0.6952 0.7189
vn 0.2751 -0.6952 0.6641
vn 0.5083 -0.6952 0.5083
vn 0.6641 -0.6952 0.2751
vn 0.7189 -0.6952 -0.0000
vn 0.6641 -0.6952 -0.2751
vn 0.5083 -0.6952 -0.5083
vn 0.2751 -0.6952 -0.6641
vn -0.1543 -0.9152 -0.3724
vn -0.0000 -0.9152 -0.4031
vn -0.2850 -0.9152 -0.2850
vn -0.3724 -0.9152 -0.1543
vn -0.4031 -0.9152 -0.0000
vn -0.3724 -0.9152 0.1543
vn -0.2850 -0.9152 0.2850
vn -0.1543 -0.9152 0.3724
vn 0.0000 -0.9152 0.4031
vn 0.1543 -0.9152 0.3724
vn 0.2850 -0.9152 0.2850
vn 0.3724 -0.9152 0.1543
vn 0.4031 -0.9152 -0.0000
vn 0.3724 -0.9152 -0.1543
vn 0.2850 -0.9152 -0.2850
vn 0.1543 -0.9152 -0.3724
vn 0.0000 -1.0000 -0.0000
# 114 vertex normals

vt 0.4105 0.8730 0.0000
vt 0.3965 0.8491 0.0000
vt 0.5072 0.8513 0.0000
vt 0.5074 0.9084 0.0000
vt 0.3971 0.8205 0.0000
vt 0.4114 0.8025 0.0000
vt 0.4311 0.7891 0.0000
vt 0.4535 0.7774 0.0000
vt 0.4798 0.7740 0.0000
vt 0.5066 0.7676 0.0000
vt 0.5334 0.7735 0.0000
vt 0.5596 0.7764 0.0000
vt 0.5821 0.7880 0.0000
vt 0.6019 0.8010 0.0000
vt 0.6164 0.8188 0.0000
vt 0.6175 0.8473 0.0000
vt 0.2751 0.8120 0.0000
vt 0.2579 0.8729 0.0000
vt 0.2905 0.7710 0.0000
vt 0.3141 0.7417 0.0000
vt 0.3434 0.7195 0.0000
vt 0.3778 0.7027 0.0000
vt 0.4165 0.6898 0.0000
vt 0.4589 0.6819 0.0000
vt 0.5038 0.6781 0.0000
vt 0.5492 0.6806 0.0000
vt 0.5926 0.6878 0.0000
vt 0.6323 0.6999 0.0000
vt 0.6674 0.7163 0.0000
vt 0.6975 0.7382 0.0000
vt 0.7217 0.7672 0.0000
vt 0.7379 0.8080 0.0000
vt 0.6038 0.8714 0.0000
vt 0.7562 0.8687 0.0000
vt 0.1554 0.7080 0.0000
vt 0.0916 0.7613 0.0000
vt 0.2043 0.6723 0.0000
vt 0.2493 0.6465 0.0000
vt 0.2949 0.6270 0.0000
vt 0.3432 0.6125 0.0000
vt 0.3947 0.6019 0.0000
vt 0.4488 0.5953 0.0000
vt 0.5044 0.5928 0.0000
vt 0.5601 0.5946 0.0000
vt 0.6146 0.6004 0.0000
vt 0.6663 0.6095 0.0000
vt 0.7147 0.6234 0.0000
vt 0.7607 0.6421 0.0000
vt 0.8062 0.6673 0.0000
vt 0.8558 0.7022 0.0000
vt 0.9205 0.7545 0.0000
vt 0.0959 0.5659 0.0000
vt 0.0065 0.5828 0.0000
vt 0.1620 0.5510 0.0000
vt 0.2189 0.5385 0.0000
vt 0.2735 0.5285 0.0000
vt 0.3286 0.5212 0.0000
vt 0.3854 0.5159 0.0000
vt 0.4440 0.5125 0.0000
vt 0.5036 0.5111 0.0000
vt 0.5631 0.5117 0.0000
vt 0.6215 0.5143 0.0000
vt 0.6787 0.5179 0.0000
vt 0.7344 0.5247 0.0000
vt 0.7892 0.5338 0.0000
vt 0.8465 0.5454 0.0000
vt 0.9129 0.5592 0.0000
vt 1.0025 0.5746 0.0000
vt 0.1084 0.4149 0.0000
vt 0.0277 0.3900 0.0000
vt 0.1717 0.4235 0.0000
vt 0.2268 0.4264 0.0000
vt 0.2794 0.4277 0.0000
vt 0.3325 0.4288 0.0000
vt 0.3876 0.4297 0.0000
vt 0.4448 0.4301 0.0000
vt 0.5032 0.4300 0.0000
vt 0.5616 0.4292 0.0000
vt 0.6187 0.4279 0.0000
vt 0.6739 0.4260 0.0000
vt 0.7270 0.4241 0.0000
vt 0.7796 0.4219 0.0000
vt 0.8347 0.4181 0.0000
vt 0.8979 0.4084 0.0000
vt 0.9782 0.3822 0.0000
vt 0.1869 0.2872 0.0000
vt 0.1393 0.2427 0.0000
vt 0.2328 0.3084 0.0000
vt 0.2751 0.3202 0.0000
vt 0.3162 0.3282 0.0000
vt 0.3582 0.3350 0.0000
vt 0.4033 0.3409 0.0000
vt 0.4520 0.3448 0.0000
vt 0.5030 0.3463 0.0000
vt 0.5539 0.3438 0.0000
vt 0.6022 0.3391 0.0000
vt 0.6469 0.3325 0.0000
vt 0.6887 0.3251 0.0000
vt 0.7296 0.3165 0.0000
vt 0.7716 0.3040 0.0000
vt 0.8172 0.2821 0.0000
vt 0.8640 0.2369 0.0000
vt 0.3057 0.2082 0.0000
vt 0.2984 0.1696 0.0000
vt 0.3389 0.2234 0.0000
vt 0.3623 0.2379 0.0000
vt 0.3925 0.2437 0.0000
vt 0.4181 0.2487 0.0000
vt 0.4457 0.2528 0.0000
vt 0.4731 0.2524 0.0000
vt 0.5011 0.2561 0.0000
vt 0.5292 0.2522 0.0000
vt 0.5570 0.2523 0.0000
vt 0.5848 0.2477 0.0000
vt 0.6106 0.2423 0.0000
vt 0.6408 0.2359 0.0000
vt 0.6641 0.2210 0.0000
vt 0.6971 0.2052 0.0000
vt 0.7038 0.1664 0.0000
vt 0.5011 0.1650 0.0000
# 120 texture coords

g Sphere001
usemtl wire_154215229
s 1
f 1/1/1 2/2/2 3/3/3 4/4/4 
f 5/5/5 6/6/6 3/3/3 2/2/2 
f 7/7/7 8/8/8 3/3/3 6/6/6 
f 9/9/9 10/10/10 3/3/3 8/8/8 
f 11/11/11 12/12/12 3/3/3 10/10/10 
f 13/13/13 14/14/14 3/3/3 12/12/12 
f 15/15/15 16/16/16 3/3/3 14/14/14 
f 17/17/17 1/1/1 4/4/4 18/18/18 
f 19/19/19 2/2/2 1/1/1 17/17/17 
f 20/20/20 5/5/5 2/2/2 19/19/19 
f 21/21/21 6/6/6 5/5/5 20/20/20 
f 22/22/22 7/7/7 6/6/6 21/21/21 
f 23/23/23 8/8/8 7/7/7 22/22/22 
f 24/24/24 9/9/9 8/8/8 23/23/23 
f 25/25/25 10/10/10 9/9/9 24/24/24 
f 26/26/26 11/11/11 10/10/10 25/25/25 
f 27/27/27 12/12/12 11/11/11 26/26/26 
f 28/28/28 13/13/13 12/12/12 27/27/27 
f 29/29/29 14/14/14 13/13/13 28/28/28 
f 30/30/30 15/15/15 14/14/14 29/29/29 
f 31/31/31 16/16/16 15/15/15 30/30/30 
f 32/32/32 33/33/33 16/16/16 31/31/31 
f 18/34/18 4/4/4 33/33/33 32/32/32 
f 34/35/34 17/17/17 18/18/18 35/36/35 
f 36/37/36 19/19/19 17/17/17 34/35/34 
f 37/38/37 20/20/20 19/19/19 36/37/36 
f 38/39/38 21/21/21 20/20/20 37/38/37 
f 39/40/39 22/22/22 21/21/21 38/39/38 
f 40/41/40 23/23/23 22/22/22 39/40/39 
f 41/42/41 24/24/24 23/23/23 40/41/40 
f 42/43/42 25/25/25 24/24/24 41/42/41 
f 43/44/43 26/26/26 25/25/25 42/43/42 
f 44/45/44 27/27/27 26/26/26 43/44/43 
f 45/46/45 28/28/28 27/27/27 44/45/44 
f 46/47/46 29/29/29 28/28/28 45/46/45 
f 47/48/47 30/30/30 29/29/29 46/47/46 
f 48/49/48 31/31/31 30/30/30 47/48/47 
f 49/50/49 32/32/32 31/31/31 48/49/48 
f 35/51/35 18/34/18 32/32/32 49/50/49 
f 50/52/50 34/35/34 35/36/35 51/53/51 
f 52/54/52 36/37/36 34/35/34 50/52/50 
f 53/55/53 37/38/37 36/37/36 52/54/52 
f 54/56/54 38/39/38 37/38/37 53/55/53 
f 55/57/55 39/40/39 38/39/38 54/56/54 
f 56/58/56 40/41/40 39/40/39 55/57/55 
f 57/59/57 41/42/41 40/41/40 56/58/56 
f 58/60/58 42/43/42 41/42/41 57/59/57 
f 59/61/59 43/44/43 42/43/42 58/60/58 
f 60/62/60 44/45/44 43/44/43 59/61/59 
f 61/63/61 45/46/45 44/45/44 60/62/60 
f 62/64/62 46/47/46 45/46/45 61/63/61 
f 63/65/63 47/48/47 46/47/46 62/64/62 
f 64/66/64 48/49/48 47/48/47 63/65/63 
f 65/67/65 49/50/49 48/49/48 64/66/64 
f 51/68/51 35/51/35 49/50/49 65/67/65 
f 66/69/66 50/52/50 51/53/51 67/70/67 
f 68/71/68 52/54/52 50/52/50 66/69/66 
f 69/72/69 53/55/53 52/54/52 68/71/68 
f 70/73/70 54/56/54 53/55/53 69/72/69 
f 71/74/71 55/57/55 54/56/54 70/73/70 
f 72/75/72 56/58/56 55/57/55 71/74/71 
f 73/76/73 57/59/57 56/58/56 72/75/72 
f 74/77/74 58/60/58 57/59/57 73/76/73 
f 75/78/75 59/61/59 58/60/58 74/77/74 
f 76/79/76 60/62/60 59/61/59 75/78/75 
f 77/80/77 61/63/61 60/62/60 76/79/76 
f 78/81/78 62/64/62 61/63/61 77/80/77 
f 79/82/79 63/65/63 62/64/62 78/81/78 
f 80/83/80 64/66/64 63/65/63 79/82/79 
f 81/84/81 65/67/65 64/66/64 80/83/80 
f 67/85/67 51/68/51 65/67/65 81/84/81 
f 82/86/82 66/69/66 67/70/67 83/87/83 
f 84/88/84 68/71/68 66/69/66 82/86/82 
f 85/89/85 69/72/69 68/71/68 84/88/84 
f 86/90/86 70/73/70 69/72/69 85/89/85 
f 87/91/87 71/74/71 70/73/70 86/90/86 
f 88/92/88 72/75/72 71/74/71 87/91/87 
f 89/93/89 73/76/73 72/75/72 88/92/88 
f 90/94/90 74/77/74 73/76/73 89/93/89 
f 91/95/91 75/78/75 74/77/74 90/94/90 
f 92/96/92 76/79/76 75/78/75 91/95/91 
f 93/97/93 77/80/77 76/79/76 92/96/92 
f 94/98/94 78/81/78 77/80/77 93/97/93 
f 95/99/95 79/82/79 78/81/78 94/98/94 
f 96/100/96 80/83/80 79/82/79 95/99/95 
f 97/101/97 81/84/81 80/83/80 96/100/96 
f 83/102/83 67/85/67 81/84/81 97/101/97 
f 98/103/98 82/86/82 83/87/83 99/104/99 
f 100/105/100 84/88/84 82/86/82 98/103/98 
f 101/106/101 85/89/85 84/88/84 100/105/100 
f 102/107/102 86/90/86 85/89/85 101/106/101 
f 103/108/103 87/91/87 86/90/86 102/107/102 
f 104/109/104 88/92/88 87/91/87 103/108/103 
f 105/110/105 89/93/89 88/92/88 104/109/104 
f 106/111/106 90/94/90 89/93/89 105/110/105 
f 107/112/107 91/95/91 90/94/90 106/111/106 
f 108/113/108 92/96/92 91/95/91 107/112/107 
f 109/114/109 93/97/93 92/96/92 108/113/108 
f 110/115/110 94/98/94 93/97/93 109/114/109 
f 111/116/111 95/99/95 94/98/94 110/115/110 
f 112/117/112 96/100/96 95/99/95 111/116/111 
f 113/118/113 97/101/97 96/100/96 112/117/112 
f 99/119/99 83/102/83 97/101/97 113/118/113 
f 114/120/114 100/105/100 98/103/98 99/104/99 
f 114/120/114 102/107/102 101/106/101 100/105/100 
f 114/120/114 104/109/104 103/108/103 102/107/102 
f 114/120/114 106/111/106 105/110/105 104/109/104 
f 114/120/114 108/113/108 107/112/107 106/111/106 
f 114/120/114 110/115/110 109/114/109 108/113/108 
f 114/120/114 112/117/112 111/116/111 110/115/110 
f 114/120/114 99/119/99 113/118/113 112/117/112 
f 3/3/3 16/16/16 33/33/33 4/4/4 
# 112 polygons

