# 3ds Max Wavefront OBJ Exporter v0.97b - (c)2007 guruware
# File Created: 10.05.2018 14:49:47

mtllib Bottle.mtl

#
# object Cylinder001
#

v  4.4344 0.1565 -2.1366
v  6.0939 9.1274 -2.9358
v  6.7640 9.1274 0.0001
v  4.9220 0.1565 0.0001
v  3.0679 0.1565 -3.8501
v  4.2163 9.1274 -5.2902
v  1.0933 0.1565 -4.8010
v  1.5032 9.1274 -6.5967
v  -1.0983 0.1565 -4.8010
v  -1.5082 9.1274 -6.5967
v  -3.0729 0.1565 -3.8501
v  -4.2213 9.1274 -5.2902
v  -4.4394 0.1565 -2.1366
v  -6.0989 9.1274 -2.9358
v  -4.9271 0.1565 0.0001
v  -6.7690 9.1274 0.0001
v  -4.4394 0.1565 2.1368
v  -6.0989 9.1274 2.9359
v  -3.0729 0.1565 3.8502
v  -4.2213 9.1274 5.2903
v  -1.0983 0.1565 4.8012
v  -1.5082 9.1274 6.5969
v  1.0933 0.1565 4.8012
v  1.5032 9.1274 6.5969
v  3.0679 0.1565 3.8502
v  4.2163 9.1274 5.2903
v  4.4344 0.1565 2.1368
v  6.0939 9.1274 2.9359
v  4.6255 21.6271 0.0000
v  4.1674 21.6271 -2.0072
v  5.8240 22.9795 -2.8050
v  6.4642 22.9795 0.0000
v  2.8837 21.6271 -3.6168
v  4.0301 22.9795 -5.0544
v  1.0288 21.6271 -4.5101
v  1.4380 22.9795 -6.3027
v  -1.0300 21.6271 -4.5101
v  -1.4392 22.9795 -6.3027
v  -2.8849 21.6271 -3.6168
v  -4.0313 22.9795 -5.0544
v  -4.1686 21.6271 -2.0072
v  -5.8252 22.9795 -2.8050
v  -4.6267 21.6271 0.0000
v  -6.4654 22.9795 0.0000
v  -4.1686 21.6271 2.0072
v  -5.8252 22.9795 2.8050
v  -2.8849 21.6271 3.6169
v  -4.0313 22.9795 5.0544
v  -1.0300 21.6271 4.5101
v  -1.4392 22.9795 6.3027
v  1.0288 21.6271 4.5101
v  1.4380 22.9795 6.3027
v  2.8837 21.6271 3.6169
v  4.0301 22.9795 5.0544
v  4.1674 21.6271 2.0072
v  5.8240 22.9795 2.8050
v  5.8240 25.0581 -2.8050
v  6.4642 25.0581 0.0000
v  4.0301 25.0581 -5.0544
v  1.4380 25.0581 -6.3027
v  -1.4392 25.0581 -6.3027
v  -4.0313 25.0581 -5.0544
v  -5.8252 25.0581 -2.8050
v  -6.4654 25.0581 0.0000
v  -5.8128 25.0581 2.7983
v  -4.0313 25.0581 5.0544
v  -1.4392 25.0581 6.3027
v  1.4380 25.0581 6.3027
v  4.0301 25.0581 5.0544
v  5.8240 25.0581 2.8050
v  2.7958 27.1367 -3.5061
v  0.9978 27.1367 -4.3720
v  -0.0617 27.1367 0.0281
v  4.0400 27.1367 -1.9459
v  -0.9979 27.1367 -4.3720
v  -2.7959 27.1367 -3.5061
v  -4.0401 27.1367 -1.9459
v  -4.4842 27.1367 -0.0003
v  -4.0229 27.1367 1.9360
v  -2.7959 27.1367 3.5056
v  -0.9979 27.1367 4.3714
v  0.9978 27.1367 4.3714
v  2.7958 27.1367 3.5056
v  4.0400 27.1367 1.9453
v  4.4841 27.1367 -0.0003
v  4.0594 19.5278 -1.9556
v  4.5058 19.5278 0.0000
v  6.6667 14.4951 0.0001
v  6.0063 14.4951 -2.8936
v  2.8087 19.5278 -3.5239
v  4.1557 14.4951 -5.2142
v  1.0014 19.5278 -4.3943
v  1.4815 14.4951 -6.5020
v  -1.0045 19.5278 -4.3943
v  -1.4866 14.4951 -6.5020
v  -2.8118 19.5278 -3.5239
v  -4.1607 14.4951 -5.2142
v  -4.0625 19.5278 -1.9556
v  -6.0113 14.4951 -2.8936
v  -4.5089 19.5278 0.0000
v  -6.6717 14.4951 0.0001
v  -4.0625 19.5278 1.9557
v  -6.0113 14.4951 2.8937
v  -2.8118 19.5278 3.5240
v  -4.1607 14.4951 5.2143
v  -1.0045 19.5278 4.3944
v  -1.4866 14.4951 6.5021
v  1.0014 19.5278 4.3944
v  1.4815 14.4951 6.5021
v  2.8087 19.5278 3.5240
v  4.1557 14.4951 5.2143
v  4.0594 19.5278 1.9557
v  6.0063 14.4951 2.8937
v  0.0000 0.1565 -0.0926
# 114 vertices

vn 0.8826 -0.2011 -0.4250
vn 0.8973 -0.0907 -0.4321
vn 0.9959 -0.0907 -0.0000
vn 0.9796 -0.2011 -0.0000
vn 0.6107 -0.2011 -0.7659
vn 0.6209 -0.0907 -0.7786
vn 0.2180 -0.2011 -0.9550
vn 0.2216 -0.0907 -0.9709
vn -0.2180 -0.2011 -0.9550
vn -0.2216 -0.0907 -0.9709
vn -0.6107 -0.2011 -0.7659
vn -0.6209 -0.0907 -0.7786
vn -0.8826 -0.2011 -0.4250
vn -0.8973 -0.0907 -0.4321
vn -0.9796 -0.2011 -0.0000
vn -0.9959 -0.0907 -0.0000
vn -0.8826 -0.2011 0.4250
vn -0.8973 -0.0907 0.4321
vn -0.6107 -0.2011 0.7659
vn -0.6209 -0.0907 0.7786
vn -0.2180 -0.2011 0.9550
vn -0.2216 -0.0907 0.9709
vn 0.2180 -0.2011 0.9550
vn 0.2216 -0.0907 0.9709
vn 0.6107 -0.2011 0.7659
vn 0.6209 -0.0907 0.7786
vn 0.8826 -0.2011 0.4250
vn 0.8973 -0.0907 0.4321
vn 0.8638 -0.5038 -0.0000
vn 0.7783 -0.5038 -0.3748
vn 0.8145 -0.4274 -0.3923
vn 0.9040 -0.4274 -0.0000
vn 0.5386 -0.5038 -0.6754
vn 0.5637 -0.4274 -0.7068
vn 0.1923 -0.5037 -0.8422
vn 0.2012 -0.4274 -0.8814
vn -0.1922 -0.5036 -0.8423
vn -0.2012 -0.4274 -0.8814
vn -0.5387 -0.5035 -0.6755
vn -0.5637 -0.4274 -0.7068
vn -0.7784 -0.5035 -0.3749
vn -0.8145 -0.4274 -0.3923
vn -0.8640 -0.5034 -0.0000
vn -0.9040 -0.4274 -0.0000
vn -0.7784 -0.5035 0.3749
vn -0.8152 -0.4250 0.3935
vn -0.5387 -0.5035 0.6755
vn -0.5645 -0.4269 0.7065
vn -0.1922 -0.5036 0.8423
vn -0.2012 -0.4274 0.8814
vn 0.1923 -0.5037 0.8422
vn 0.2012 -0.4274 0.8814
vn 0.5386 -0.5038 0.6754
vn 0.5637 -0.4274 0.7068
vn 0.7783 -0.5038 0.3748
vn 0.8145 -0.4274 0.3923
vn 0.8425 0.3544 -0.4057
vn 0.9351 0.3544 0.0000
vn 0.5830 0.3544 -0.7311
vn 0.2081 0.3545 -0.9116
vn -0.2081 0.3545 -0.9116
vn -0.5830 0.3545 -0.7310
vn -0.8424 0.3545 -0.4057
vn -0.9348 0.3553 0.0016
vn -0.8412 0.3577 0.4056
vn -0.5847 0.3544 0.7297
vn -0.2081 0.3545 0.9116
vn 0.2081 0.3545 0.9116
vn 0.5830 0.3545 0.7311
vn 0.8425 0.3545 0.4057
vn 0.0000 1.0000 -0.0000
vn 0.6524 0.6897 -0.3142
vn 0.7241 0.6897 -0.0000
vn 0.4515 0.6897 -0.5661
vn 0.1611 0.6898 -0.7059
vn -0.1611 0.6898 -0.7058
vn -0.4513 0.6899 -0.5660
vn -0.6522 0.6899 -0.3141
vn -0.7239 0.6899 0.0038
vn -0.6523 0.6903 0.3129
vn -0.4532 0.6906 0.5637
vn -0.1611 0.6899 0.7057
vn 0.1611 0.6899 0.7058
vn 0.4514 0.6898 0.5660
vn 0.6523 0.6898 0.3141
vn 0.8864 0.1793 -0.4269
vn 0.9838 0.1792 0.0000
vn 0.9788 0.2049 0.0000
vn 0.8819 0.2049 -0.4247
vn 0.6134 0.1793 -0.7692
vn 0.6103 0.2049 -0.7653
vn 0.2189 0.1795 -0.9591
vn 0.2178 0.2049 -0.9542
vn -0.2189 0.1796 -0.9591
vn -0.2178 0.2049 -0.9542
vn -0.6133 0.1797 -0.7691
vn -0.6103 0.2050 -0.7652
vn -0.8863 0.1798 -0.4268
vn -0.8818 0.2050 -0.4247
vn -0.9837 0.1799 0.0000
vn -0.9788 0.2050 0.0000
vn -0.8863 0.1798 0.4268
vn -0.8818 0.2050 0.4247
vn -0.6133 0.1797 0.7691
vn -0.6103 0.2050 0.7652
vn -0.2189 0.1796 0.9591
vn -0.2178 0.2050 0.9542
vn 0.2189 0.1795 0.9591
vn 0.2178 0.2049 0.9542
vn 0.6134 0.1794 0.7692
vn 0.6103 0.2049 0.7652
vn 0.8864 0.1793 0.4269
vn 0.8819 0.2049 0.4247
vn 0.0000 -1.0000 -0.0000
# 114 vertex normals

vt 0.7512 0.0149 -4.3536
vt 0.7466 0.2424 -4.3536
vt 0.6791 0.2397 -4.3536
vt 0.6842 0.0121 -4.3536
vt 0.8150 0.0190 -4.3536
vt 0.8158 0.2461 -4.3536
vt 0.8743 0.0217 -4.3536
vt 0.8875 0.2495 -4.3536
vt 0.9305 0.0192 4.3536
vt 0.9611 0.2505 -4.3536
vt 0.0851 0.0170 -4.3536
vt 0.0718 0.2448 -4.3536
vt -0.0020 0.2453 -4.3536
vt 0.0290 0.0143 4.3536
vt 0.1460 0.0143 -4.3536
vt 0.1430 0.2417 -4.3536
vt 0.2112 0.0116 -4.3536
vt 0.2119 0.2391 -4.3536
vt 0.2777 0.0095 -4.3536
vt 0.2795 0.2374 -4.3536
vt 0.3452 0.0082 -4.3536
vt 0.3463 0.2360 -4.3536
vt 0.4131 0.0075 -4.3536
vt 0.4129 0.2355 -4.3536
vt 0.4813 0.0076 -4.3536
vt 0.4793 0.2356 -4.3536
vt 0.5495 0.0085 -4.3536
vt 0.5457 0.2364 -4.3536
vt 0.6171 0.0101 -4.3536
vt 0.6121 0.2380 -4.3536
vt 0.6650 0.5619 -4.3536
vt 0.7266 0.5638 -4.3536
vt 0.7262 0.6199 -4.3536
vt 0.6640 0.6180 -4.3536
vt 0.7870 0.5662 -4.3536
vt 0.7889 0.6222 -4.3536
vt 0.8452 0.5686 -4.3536
vt 0.8534 0.6243 -4.3536
vt 0.8989 0.5661 -4.3536
vt 0.9218 0.6203 -4.3536
vt 0.0565 0.5615 -4.3536
vt 0.1102 0.5645 -4.3536
vt 0.1014 0.6201 -4.3536
vt 0.0331 0.6155 -4.3536
vt 0.1685 0.5625 -4.3536
vt 0.1660 0.6184 -4.3536
vt 0.2290 0.5606 -4.3536
vt 0.2287 0.6167 -4.3536
vt 0.2905 0.5592 -4.3536
vt 0.2908 0.6153 -4.3536
vt 0.3527 0.5583 -4.3536
vt 0.3529 0.6144 -4.3536
vt 0.4154 0.5578 -4.3536
vt 0.4150 0.6139 -4.3536
vt 0.4779 0.5584 -4.3536
vt 0.4772 0.6146 -4.3536
vt 0.5404 0.5590 -4.3536
vt 0.5396 0.6151 -4.3536
vt 0.6028 0.5603 -4.3536
vt 0.6019 0.6165 -4.3536
vt 0.7256 0.6713 -4.3536
vt 0.6632 0.6698 -4.3536
vt 0.7888 0.6726 -4.3536
vt 0.8541 0.6741 -4.3536
vt 0.9228 0.6798 -4.3536
vt 0.1003 0.6697 -4.3536
vt 0.0315 0.6749 -4.3536
vt 0.1655 0.6687 -4.3536
vt 0.2287 0.6680 -4.3536
vt 0.2910 0.6672 -4.3536
vt 0.3530 0.6663 -4.3536
vt 0.4149 0.6659 -4.3536
vt 0.4769 0.6663 -4.3536
vt 0.5389 0.6670 -4.3536
vt 0.6010 0.6683 -4.3536
vt 0.5737 0.9161 -0.2110
vt 0.5429 0.9546 -0.2110
vt 0.4722 0.8680 -0.2110
vt 0.5847 0.8680 -0.2110
vt 0.4985 0.9760 0.2110
vt 0.4492 0.9760 0.2110
vt 0.4048 0.9546 -0.2110
vt 0.3740 0.9161 -0.2110
vt 0.3635 0.8680 -0.2110
vt 0.3740 0.8199 -0.2110
vt 0.4048 0.7814 -0.2110
vt 0.4492 0.7600 -0.2110
vt 0.4985 0.7600 -0.2110
vt 0.5429 0.7814 -0.2110
vt 0.5737 0.8199 -0.2110
vt 0.7240 0.7418 -4.3536
vt 0.6617 0.7405 -4.3536
vt 0.7859 0.7426 -4.3536
vt 0.8453 0.7438 -4.3536
vt 0.8982 0.7516 -4.3536
vt 0.1085 0.7395 -4.3536
vt 0.0556 0.7469 -4.3536
vt 0.1679 0.7388 -4.3536
vt 0.2296 0.7384 -4.3536
vt 0.2916 0.7380 -4.3536
vt 0.3533 0.7371 -4.3536
vt 0.4149 0.7368 -4.3536
vt 0.4764 0.7371 -4.3536
vt 0.5379 0.7378 -4.3536
vt 0.5997 0.7390 -4.3536
vt 0.7279 0.5108 -4.3536
vt 0.6663 0.5090 -4.3536
vt 0.6745 0.3729 -4.3536
vt 0.7403 0.3751 -4.3536
vt 0.7881 0.5127 -4.3536
vt 0.8073 0.3779 -4.3536
vt 0.8451 0.5154 -4.3536
vt 0.8762 0.3822 -4.3536
vt 0.8968 0.5209 -4.3536
vt 0.9471 0.3931 -4.3536
vt 0.1106 0.5112 -4.3536
vt 0.0589 0.5162 -4.3536
vt 0.0102 0.3878 -4.3536
vt 0.0812 0.3776 -4.3536
vt 0.1675 0.5091 -4.3536
vt 0.1500 0.3739 -4.3536
vt 0.2276 0.5076 -4.3536
vt 0.2169 0.3717 -4.3536
vt 0.2894 0.5064 -4.3536
vt 0.2831 0.3705 -4.3536
vt 0.3520 0.5057 -4.3536
vt 0.3486 0.3695 -4.3536
vt 0.4151 0.5054 -4.3536
vt 0.4137 0.3692 -4.3536
vt 0.4782 0.5056 -4.3536
vt 0.4787 0.3694 -4.3536
vt 0.5413 0.5064 -4.3536
vt 0.5436 0.3701 -4.3536
vt 0.6041 0.5075 -4.3536
vt 0.6089 0.3714 -4.3536
vt 0.1139 0.9441 0.2418
vt 0.0904 0.8953 0.2418
vt 0.2113 0.8683 0.2418
vt 0.1562 0.9779 0.2418
vt 0.2619 0.7586 0.2418
vt 0.3042 0.7924 0.2418
vt 0.2091 0.7466 -0.2418
vt 0.3277 0.8412 0.2418
vt 0.3277 0.8953 0.2418
vt 0.3042 0.9441 0.2418
vt 0.2619 0.9779 0.2418
vt 0.2091 0.9900 -0.2418
vt 0.1562 0.7586 0.2418
vt 0.1139 0.7924 0.2418
vt 0.0904 0.8412 0.2418
# 150 texture coords

g Cylinder001
usemtl 01___Default
s 1
f 1/1/1 2/2/2 3/3/3 4/4/4 
f 5/5/5 6/6/6 2/2/2 1/1/1 
f 7/7/7 8/8/8 6/6/6 5/5/5 
f 9/9/9 10/10/10 8/8/8 7/7/7 
f 11/11/11 12/12/12 10/13/10 9/14/9 
f 13/15/13 14/16/14 12/12/12 11/11/11 
f 15/17/15 16/18/16 14/16/14 13/15/13 
f 17/19/17 18/20/18 16/18/16 15/17/15 
f 19/21/19 20/22/20 18/20/18 17/19/17 
f 21/23/21 22/24/22 20/22/20 19/21/19 
f 23/25/23 24/26/24 22/24/22 21/23/21 
f 25/27/25 26/28/26 24/26/24 23/25/23 
f 27/29/27 28/30/28 26/28/26 25/27/25 
f 4/4/4 3/3/3 28/30/28 27/29/27 
f 29/31/29 30/32/30 31/33/31 32/34/32 
f 30/32/30 33/35/33 34/36/34 31/33/31 
f 33/35/33 35/37/35 36/38/36 34/36/34 
f 35/37/35 37/39/37 38/40/38 36/38/36 
f 37/41/37 39/42/39 40/43/40 38/44/38 
f 39/42/39 41/45/41 42/46/42 40/43/40 
f 41/45/41 43/47/43 44/48/44 42/46/42 
f 43/47/43 45/49/45 46/50/46 44/48/44 
f 45/49/45 47/51/47 48/52/48 46/50/46 
f 47/51/47 49/53/49 50/54/50 48/52/48 
f 49/53/49 51/55/51 52/56/52 50/54/50 
f 51/55/51 53/57/53 54/58/54 52/56/52 
f 53/57/53 55/59/55 56/60/56 54/58/54 
f 55/59/55 29/31/29 32/34/32 56/60/56 
f 31/33/31 57/61/57 58/62/58 32/34/32 
f 34/36/34 59/63/59 57/61/57 31/33/31 
f 36/38/36 60/64/60 59/63/59 34/36/34 
f 38/40/38 61/65/61 60/64/60 36/38/36 
f 40/43/40 62/66/62 61/67/61 38/44/38 
f 42/46/42 63/68/63 62/66/62 40/43/40 
f 44/48/44 64/69/64 63/68/63 42/46/42 
f 46/50/46 65/70/65 64/69/64 44/48/44 
f 48/52/48 66/71/66 65/70/65 46/50/46 
f 50/54/50 67/72/67 66/71/66 48/52/48 
f 52/56/52 68/73/68 67/72/67 50/54/50 
f 54/58/54 69/74/69 68/73/68 52/56/52 
f 56/60/56 70/75/70 69/74/69 54/58/54 
f 32/34/32 58/62/58 70/75/70 56/60/56 
s 2
f 71/76/71 72/77/71 73/78/71 74/79/71 
f 75/80/71 76/81/71 73/78/71 72/77/71 
f 77/82/71 78/83/71 73/78/71 76/81/71 
f 79/84/71 80/85/71 73/78/71 78/83/71 
f 81/86/71 82/87/71 73/78/71 80/85/71 
f 83/88/71 84/89/71 73/78/71 82/87/71 
f 85/90/71 74/79/71 73/78/71 84/89/71 
s 1
f 74/91/72 85/92/73 58/62/58 57/61/57 
f 71/93/74 74/91/72 57/61/57 59/63/59 
f 72/94/75 71/93/74 59/63/59 60/64/60 
f 75/95/76 72/94/75 60/64/60 61/65/61 
f 76/96/77 75/97/76 61/67/61 62/66/62 
f 77/98/78 76/96/77 62/66/62 63/68/63 
f 78/99/79 77/98/78 63/68/63 64/69/64 
f 79/100/80 78/99/79 64/69/64 65/70/65 
f 80/101/81 79/100/80 65/70/65 66/71/66 
f 81/102/82 80/101/81 66/71/66 67/72/67 
f 82/103/83 81/102/82 67/72/67 68/73/68 
f 83/104/84 82/103/83 68/73/68 69/74/69 
f 84/105/85 83/104/84 69/74/69 70/75/70 
f 85/92/73 84/105/85 70/75/70 58/62/58 
f 86/106/86 87/107/87 88/108/88 89/109/89 
f 90/110/90 86/106/86 89/109/89 91/111/91 
f 92/112/92 90/110/90 91/111/91 93/113/93 
f 94/114/94 92/112/92 93/113/93 95/115/95 
f 96/116/96 94/117/94 95/118/95 97/119/97 
f 98/120/98 96/116/96 97/119/97 99/121/99 
f 100/122/100 98/120/98 99/121/99 101/123/101 
f 102/124/102 100/122/100 101/123/101 103/125/103 
f 104/126/104 102/124/102 103/125/103 105/127/105 
f 106/128/106 104/126/104 105/127/105 107/129/107 
f 108/130/108 106/128/106 107/129/107 109/131/109 
f 110/132/110 108/130/108 109/131/109 111/133/111 
f 112/134/112 110/132/110 111/133/111 113/135/113 
f 87/107/87 112/134/112 113/135/113 88/108/88 
f 89/109/89 88/108/88 3/3/3 2/2/2 
f 91/111/91 89/109/89 2/2/2 6/6/6 
f 93/113/93 91/111/91 6/6/6 8/8/8 
f 95/115/95 93/113/93 8/8/8 10/10/10 
f 97/119/97 95/118/95 10/13/10 12/12/12 
f 99/121/99 97/119/97 12/12/12 14/16/14 
f 101/123/101 99/121/99 14/16/14 16/18/16 
f 103/125/103 101/123/101 16/18/16 18/20/18 
f 105/127/105 103/125/103 18/20/18 20/22/20 
f 107/129/107 105/127/105 20/22/20 22/24/22 
f 109/131/109 107/129/107 22/24/22 24/26/24 
f 111/133/111 109/131/109 24/26/24 26/28/26 
f 113/135/113 111/133/111 26/28/26 28/30/28 
f 88/108/88 113/135/113 28/30/28 3/3/3 
f 30/32/30 29/31/29 87/107/87 86/106/86 
f 33/35/33 30/32/30 86/106/86 90/110/90 
f 35/37/35 33/35/33 90/110/90 92/112/92 
f 37/39/37 35/37/35 92/112/92 94/114/94 
f 39/42/39 37/41/37 94/117/94 96/116/96 
f 41/45/41 39/42/39 96/116/96 98/120/98 
f 43/47/43 41/45/41 98/120/98 100/122/100 
f 45/49/45 43/47/43 100/122/100 102/124/102 
f 47/51/47 45/49/45 102/124/102 104/126/104 
f 49/53/49 47/51/47 104/126/104 106/128/106 
f 51/55/51 49/53/49 106/128/106 108/130/108 
f 53/57/53 51/55/51 108/130/108 110/132/110 
f 55/59/55 53/57/53 110/132/110 112/134/112 
f 29/31/29 55/59/55 112/134/112 87/107/87 
s 2
f 25/136/114 23/137/114 114/138/114 27/139/114 
f 13/140/114 11/141/114 114/138/114 15/142/114 
f 9/143/114 7/144/114 114/138/114 11/141/114 
f 5/145/114 1/146/114 114/138/114 7/144/114 
f 4/147/114 27/139/114 114/138/114 1/146/114 
f 17/148/114 15/142/114 114/138/114 19/149/114 
f 21/150/114 19/149/114 114/138/114 23/137/114 
# 112 polygons

