# 3ds Max Wavefront OBJ Exporter v0.97b - (c)2007 guruware
# File Created: 11.05.2018 18:07:38

mtllib Table.mtl

#
# object Box003
#

v  -5.6607 8.1478 -14.2966
v  -5.6607 8.1478 14.2966
v  5.6607 8.1478 14.2966
v  5.6607 8.1478 -14.2966
v  -5.6607 0.0000 14.2966
v  5.6607 0.0000 14.2966
v  5.6607 0.0000 -14.2966
v  -5.6607 0.0000 -14.2966
# 8 vertices

vn 0.0000 1.0000 -0.0000
vn 0.0000 0.0000 1.0000
vn 1.0000 0.0000 -0.0000
vn 0.0000 0.0000 -1.0000
vn -1.0000 0.0000 -0.0000
# 5 vertex normals

vt 0.8567 0.2449 0.0000
vt 0.5000 0.2449 0.0000
vt 0.5000 0.1037 0.0000
vt 0.8567 0.1037 0.0000
vt 0.3587 0.1037 0.0000
vt 0.3587 0.0020 0.0000
vt 0.5000 0.0020 0.0000
vt 0.8567 0.0020 0.0000
vt 0.9980 0.0020 0.0000
vt 0.9980 0.1037 0.0000
vt 0.0020 0.1037 0.0000
vt 0.0020 0.0020 0.0000
# 12 texture coords

g Box003
usemtl wire_027177027
s 4
f 1/1/1 2/2/1 3/3/1 4/4/1 
s 8
f 2/5/2 5/6/2 6/7/2 3/3/2 
s 16
f 3/3/3 6/7/3 7/8/3 4/4/3 
s 32
f 4/4/4 7/8/4 8/9/4 1/10/4 
s 64
f 1/11/5 8/12/5 5/6/5 2/5/5 
# 5 polygons

