# 3ds Max Wavefront OBJ Exporter v0.97b - (c)2007 guruware
# File Created: 04.05.2018 16:30:27

mtllib boton.mtl

#
# object Cylinder001
#

v  4.7407 0.0000 -0.0000
v  3.3173 0.0000 -2.9558
v  3.3173 0.6678 -2.9558
v  4.7407 0.6678 -0.0000
v  0.1189 0.0000 -3.6858
v  0.1189 0.6678 -3.6858
v  -2.4460 0.0000 -1.6403
v  -2.4460 0.6678 -1.6403
v  -2.4460 0.0000 1.6403
v  -2.4460 0.6678 1.6403
v  0.1189 0.0000 3.6858
v  0.1189 0.6678 3.6858
v  3.3173 0.0000 2.9558
v  3.3173 0.6678 2.9558
v  2.6977 1.3356 -2.1789
v  3.7470 1.3356 0.0000
v  0.3400 1.3356 -2.7170
v  -1.5508 1.3356 -1.2092
v  -1.5508 1.3356 1.2092
v  0.3400 1.3356 2.7170
v  2.6977 1.3356 2.1789
v  2.6977 2.0595 -2.1789
v  2.9743 3.0386 -2.5256
v  4.1905 3.0386 0.0000
v  3.7470 2.0595 0.0000
v  0.3400 2.0595 -2.7170
v  0.2413 3.0386 -3.1494
v  -1.5508 2.0595 -1.2092
v  -1.9503 3.0386 -1.4016
v  -1.5508 2.0595 1.2092
v  -1.9503 3.0386 1.4016
v  0.3400 2.0595 2.7170
v  0.2413 3.0386 3.1494
v  2.6977 2.0595 2.1789
v  2.9743 3.0386 2.5256
v  2.7274 4.0176 -2.2161
v  0.3294 4.0176 -2.7634
v  1.0692 4.6030 -0.0610
v  -1.5937 4.0176 -1.2298
v  -1.5937 4.0176 1.2298
v  0.3294 4.0176 2.7634
v  2.7274 4.0176 2.2161
v  3.7946 4.0176 0.0000
# 43 vertices

vn 0.9010 0.0000 -0.4339
vn 0.2225 0.0000 -0.9749
vn -0.6235 0.0000 -0.7818
vn -1.0000 0.0000 0.0000
vn -0.6235 0.0000 0.7818
vn 0.2225 0.0000 0.9749
vn 0.9010 0.0000 0.4339
vn 0.5578 0.8300 -0.0000
vn 0.3478 0.8300 -0.4361
vn -0.1241 0.8300 -0.5438
vn -0.5026 0.8300 -0.2420
vn -0.5026 0.8300 0.2420
vn -0.1241 0.8300 0.5438
vn 0.3478 0.8300 0.4361
vn 0.8342 -0.3779 -0.4017
vn 0.9008 -0.0168 -0.4338
vn 0.2060 -0.3779 -0.9027
vn 0.2225 -0.0168 -0.9748
vn -0.5773 -0.3779 -0.7239
vn -0.6234 -0.0168 -0.7817
vn -0.9259 -0.3779 -0.0000
vn -0.9999 -0.0168 -0.0000
vn -0.5773 -0.3779 0.7239
vn -0.6234 -0.0168 0.7817
vn 0.2060 -0.3779 0.9027
vn 0.2225 -0.0168 0.9748
vn 0.8342 -0.3779 0.4017
vn 0.9008 -0.0168 0.4338
vn 0.1307 0.9776 -0.1650
vn -0.0472 0.9788 -0.1991
vn 0.0087 0.9999 -0.0049
vn -0.1784 0.9803 -0.0844
vn -0.1748 0.9810 0.0843
vn -0.0449 0.9805 0.1914
vn 0.1256 0.9791 0.1602
vn 0.2100 0.9777 0.0009
vn 0.8465 0.3423 -0.4077
vn 0.2091 0.3423 -0.9160
vn -0.5858 0.3423 -0.7346
vn -0.9396 0.3423 -0.0000
vn -0.5858 0.3423 0.7346
vn 0.2091 0.3423 0.9160
vn 0.8465 0.3423 0.4077
# 43 vertex normals

vt 0.9215 0.6543 0.0000
vt 0.8479 0.8586 0.0000
vt 0.8254 0.8358 0.0000
vt 0.8898 0.6576 0.0000
vt 0.6427 0.9295 0.0000
vt 0.6464 0.8978 0.0000
vt 0.4595 0.8128 0.0000
vt 0.4866 0.7960 0.0000
vt 0.4371 0.5968 0.0000
vt 0.4673 0.6076 0.0000
vt 0.5914 0.4439 0.0000
vt 0.6017 0.4741 0.0000
vt 0.8070 0.4697 0.0000
vt 0.7899 0.4966 0.0000
vt 0.7783 0.7881 0.0000
vt 0.8232 0.6646 0.0000
vt 0.6543 0.8313 0.0000
vt 0.5436 0.7608 0.0000
vt 0.5304 0.6302 0.0000
vt 0.6235 0.5374 0.0000
vt 0.7539 0.5531 0.0000
vt 0.8514 0.2542 -0.6416
vt 0.8558 0.3103 -0.6416
vt 0.7148 0.3183 -0.6416
vt 0.7126 0.2614 -0.6416
vt 0.9852 0.2408 -0.6416
vt 1.0015 0.2982 -0.6416
vt 0.1557 0.2524 -0.6416
vt 0.1511 0.3085 -0.6416
vt 0.0055 0.2962 -0.6416
vt 0.0219 0.2388 -0.6416
vt 0.2946 0.2601 -0.6416
vt 0.2921 0.3169 -0.6416
vt 0.4339 0.2644 -0.6416
vt 0.4330 0.3214 -0.6416
vt 0.5733 0.2648 -0.6416
vt 0.5739 0.3218 -0.6416
vt 0.3642 0.6659 -0.6401
vt 0.2808 0.7707 0.6401
vt 0.2202 0.6306 -0.6401
vt 0.1468 0.7708 0.6401
vt 0.0632 0.6661 -0.6401
vt 0.0929 0.5354 -0.6401
vt 0.2136 0.4773 -0.6401
vt 0.3343 0.5353 -0.6401
vt 0.8590 0.3653 -0.6416
vt 0.7171 0.3741 -0.6416
vt 0.9957 0.3565 0.6416
vt 0.1478 0.3635 -0.6416
vt 0.0111 0.3545 0.6416
vt 0.2896 0.3727 -0.6416
vt 0.4320 0.3773 -0.6416
vt 0.5745 0.3777 -0.6416
# 53 texture coords

g Cylinder001
usemtl wire_008008136
s 1
f 1/1/1 2/2/1 3/3/1 4/4/1 
s 2
f 2/2/2 5/5/2 6/6/2 3/3/2 
s 1
f 5/5/3 7/7/3 8/8/3 6/6/3 
s 2
f 7/7/4 9/9/4 10/10/4 8/8/4 
s 1
f 9/9/5 11/11/5 12/12/5 10/10/5 
s 2
f 11/11/6 13/13/6 14/14/6 12/12/6 
s 4
f 13/13/7 1/1/7 4/4/7 14/14/7 
s 8
f 4/4/8 3/3/9 15/15/9 16/16/8 
f 3/3/9 6/6/10 17/17/10 15/15/9 
f 6/6/10 8/8/11 18/18/11 17/17/10 
f 8/8/11 10/10/12 19/19/12 18/18/11 
f 10/10/12 12/12/13 20/20/13 19/19/12 
f 12/12/13 14/14/14 21/21/14 20/20/13 
f 14/14/14 4/4/8 16/16/8 21/21/14 
s 1
f 22/22/15 23/23/16 24/24/16 25/25/15 
s 2
f 26/26/17 27/27/18 23/23/18 22/22/17 
s 1
f 28/28/19 29/29/20 27/30/20 26/31/19 
s 2
f 30/32/21 31/33/22 29/29/22 28/28/21 
s 1
f 32/34/23 33/35/24 31/33/24 30/32/23 
s 2
f 34/36/25 35/37/26 33/35/26 32/34/25 
s 4
f 25/25/27 24/24/28 35/37/28 34/36/27 
s 8
f 36/38/29 37/39/30 38/40/31 
f 37/39/30 39/41/32 38/40/31 
f 39/41/32 40/42/33 38/40/31 
f 40/42/33 41/43/34 38/40/31 
f 41/43/34 42/44/35 38/40/31 
f 42/44/35 43/45/36 38/40/31 
f 43/45/36 36/38/29 38/40/31 
s 1
f 36/46/37 43/47/37 24/24/16 23/23/16 
s 2
f 37/48/38 36/46/38 23/23/18 27/27/18 
s 1
f 39/49/39 37/50/39 27/30/20 29/29/20 
s 2
f 40/51/40 39/49/40 29/29/22 31/33/22 
s 1
f 41/52/41 40/51/41 31/33/24 33/35/24 
s 2
f 42/53/42 41/52/42 33/35/26 35/37/26 
s 4
f 43/47/43 42/53/43 35/37/28 24/24/28 
# 28 polygons - 7 triangles

