# 3ds Max Wavefront OBJ Exporter v0.97b - (c)2007 guruware
# File Created: 07.05.2018 16:33:59

mtllib Body.mtl

#
# object Sphere001
#

v  0.0000 46.2483 0.1142
v  -0.0000 45.3385 -4.7530
v  -1.5308 45.3385 -4.4243
v  -2.8549 45.3385 -3.4827
v  -3.7934 45.3385 -2.0553
v  -4.2196 45.3385 -0.3349
v  -4.0759 45.3385 1.4462
v  -3.3817 45.3385 3.0473
v  -2.2308 45.3385 4.2524
v  -0.7787 45.3385 4.8985
v  0.7787 45.3385 4.8985
v  2.2308 45.3385 4.2524
v  3.3817 45.3385 3.0473
v  4.0759 45.3385 1.4462
v  4.2196 45.3385 -0.3349
v  3.7934 45.3385 -2.0553
v  2.8549 45.3385 -3.4827
v  1.5308 45.3385 -4.4243
v  -2.8549 42.7319 -8.3499
v  -0.0000 42.7319 -8.9628
v  -5.3242 42.7319 -6.5938
v  -7.0744 42.7319 -3.9318
v  -7.8692 42.7319 -0.7233
v  -7.6013 42.7319 2.5983
v  -6.3067 42.7319 5.5843
v  -4.1604 42.7319 7.8317
v  -1.4522 42.7319 9.0367
v  1.4522 42.7319 9.0367
v  4.1604 42.7319 7.8317
v  6.3067 42.7319 5.5843
v  7.6013 42.7319 2.5982
v  7.8692 42.7319 -0.7233
v  7.0744 42.7319 -3.9318
v  5.3242 42.7319 -6.5938
v  2.8549 42.7319 -8.3499
v  -3.7934 38.7805 -11.1323
v  -0.0000 38.7805 -11.9467
v  -7.0744 38.7805 -8.7989
v  -9.4000 38.7805 -5.2618
v  -10.4561 38.7805 -0.9986
v  -10.1001 38.7805 3.4149
v  -8.3799 38.7805 7.3826
v  -5.5280 38.7805 10.3687
v  -1.9295 38.7805 11.9698
v  1.9295 38.7805 11.9698
v  5.5280 38.7805 10.3686
v  8.3799 38.7805 7.3826
v  10.1001 38.7805 3.4148
v  10.4561 38.7805 -0.9986
v  9.4000 38.7805 -5.2618
v  7.0744 38.7805 -8.7990
v  3.7934 38.7805 -11.1323
v  -4.2196 34.0180 -12.3958
v  -0.0000 34.0180 -13.3018
v  -7.8692 34.0180 -9.8003
v  -10.4561 34.0180 -5.8658
v  -11.6309 34.0180 -1.1237
v  -11.2348 34.0180 3.7857
v  -9.3214 34.0180 8.1992
v  -6.1491 34.0180 11.5207
v  -2.1463 34.0180 13.3018
v  2.1463 34.0180 13.3018
v  6.1491 34.0180 11.5207
v  9.3214 34.0180 8.1992
v  11.2348 34.0180 3.7857
v  11.6309 34.0180 -1.1237
v  10.4561 34.0180 -5.8658
v  7.8692 34.0180 -9.8003
v  4.2195 34.0180 -12.3958
v  -0.0000 -0.2572 -13.3018
v  -4.2196 -0.2572 -12.3958
v  -7.8692 -0.2572 -9.8003
v  -10.4561 -0.2572 -5.8658
v  -11.6309 -0.2572 -1.1237
v  -11.2348 -0.2572 3.7857
v  -9.3214 -0.2572 8.1992
v  -6.1491 -0.2572 11.5207
v  -2.1463 -0.2572 13.3018
v  2.1463 -0.2572 13.3018
v  6.1491 -0.2572 11.5207
v  9.3214 -0.2572 8.1992
v  11.2348 -0.2572 3.7857
v  11.6309 -0.2572 -1.1237
v  10.4561 -0.2572 -5.8658
v  7.8692 -0.2572 -9.8003
v  4.2195 -0.2572 -12.3958
# 86 vertices

vn -0.0000 1.0000 0.0000
vn -0.0000 0.9240 -0.3823
vn -0.1588 0.9217 -0.3538
vn -0.2909 0.9163 -0.2755
vn -0.3797 0.9106 -0.1632
vn -0.4185 0.9076 -0.0335
vn -0.4055 0.9086 0.0996
vn -0.3413 0.9133 0.2225
vn -0.2295 0.9192 0.3199
vn -0.0812 0.9234 0.3751
vn 0.0812 0.9234 0.3751
vn 0.2295 0.9192 0.3199
vn 0.3413 0.9133 0.2225
vn 0.4055 0.9086 0.0996
vn 0.4185 0.9076 -0.0335
vn 0.3797 0.9106 -0.1632
vn 0.2909 0.9163 -0.2755
vn 0.1588 0.9217 -0.3538
vn -0.2805 0.7210 -0.6336
vn -0.0000 0.7269 -0.6867
vn -0.5103 0.7069 -0.4898
vn -0.6613 0.6926 -0.2881
vn -0.7261 0.6851 -0.0589
vn -0.7045 0.6877 0.1754
vn -0.5964 0.6993 0.3941
vn -0.4041 0.7145 0.5711
vn -0.1438 0.7254 0.6732
vn 0.1438 0.7254 0.6732
vn 0.4041 0.7145 0.5711
vn 0.5964 0.6993 0.3941
vn 0.7045 0.6877 0.1754
vn 0.7261 0.6851 -0.0589
vn 0.6613 0.6926 -0.2881
vn 0.5103 0.7069 -0.4898
vn 0.2805 0.7210 -0.6336
vn -0.3632 0.4302 -0.8265
vn -0.0000 0.4362 -0.8998
vn -0.6539 0.4160 -0.6319
vn -0.8386 0.4020 -0.3677
vn -0.9157 0.3948 -0.0747
vn -0.8902 0.3973 0.2230
vn -0.7600 0.4085 0.5055
vn -0.5207 0.4236 0.7412
vn -0.1868 0.4346 0.8810
vn 0.1868 0.4346 0.8810
vn 0.5208 0.4236 0.7412
vn 0.7600 0.4085 0.5055
vn 0.8902 0.3973 0.2230
vn 0.9157 0.3948 -0.0747
vn 0.8386 0.4020 -0.3677
vn 0.6539 0.4160 -0.6319
vn 0.3632 0.4302 -0.8265
vn -0.3982 0.1333 -0.9076
vn -0.0000 0.1357 -0.9908
vn -0.7127 0.1278 -0.6897
vn -0.9088 0.1225 -0.3988
vn -0.9895 0.1198 -0.0808
vn -0.9629 0.1207 0.2414
vn -0.8258 0.1249 0.5499
vn -0.5694 0.1307 0.8116
vn -0.2051 0.1351 0.9694
vn 0.2051 0.1351 0.9694
vn 0.5694 0.1307 0.8116
vn 0.8258 0.1249 0.5499
vn 0.9629 0.1207 0.2414
vn 0.9895 0.1198 -0.0808
vn 0.9088 0.1225 -0.3988
vn 0.7127 0.1278 -0.6897
vn 0.3981 0.1333 -0.9076
vn -0.0000 -0.0000 -1.0000
vn -0.4030 0.0000 -0.9152
vn -0.7199 0.0000 -0.6941
vn -0.9162 0.0000 -0.4007
vn -0.9967 0.0000 -0.0811
vn -0.9702 0.0000 0.2424
vn -0.8333 0.0000 0.5528
vn -0.5757 0.0000 0.8176
vn -0.2078 0.0000 0.9782
vn 0.2078 0.0000 0.9782
vn 0.5757 0.0000 0.8176
vn 0.8333 0.0000 0.5528
vn 0.9702 0.0000 0.2424
vn 0.9967 0.0000 -0.0811
vn 0.9162 0.0000 -0.4007
vn 0.7199 0.0000 -0.6941
vn 0.4030 -0.0000 -0.9152
# 86 vertex normals

vt 0.7197 0.5306 0.0000
vt 0.6850 0.4861 0.0000
vt 0.7014 0.4782 0.0000
vt 0.7203 0.4773 0.0000
vt 0.7391 0.4836 0.0000
vt 0.7552 0.4963 0.0000
vt 0.7666 0.5136 0.0000
vt 0.7716 0.5332 0.0000
vt 0.7696 0.5525 0.0000
vt 0.7609 0.5688 0.0000
vt 0.7466 0.5799 0.0000
vt 0.7287 0.5844 0.0000
vt 0.7095 0.5816 0.0000
vt 0.6917 0.5720 0.0000
vt 0.6777 0.5567 0.0000
vt 0.6694 0.5379 0.0000
vt 0.6678 0.5182 0.0000
vt 0.6733 0.5001 0.0000
vt 0.1447 0.7296 0.0000
vt 0.2007 0.7255 0.0000
vt 0.2028 0.7441 0.0000
vt 0.1475 0.7627 0.0000
vt 0.1511 0.6962 0.0000
vt 0.2048 0.7050 0.0000
vt 0.1650 0.6636 0.0000
vt 0.2136 0.6840 0.0000
vt 0.1851 0.6331 0.0000
vt 0.2266 0.6642 0.0000
vt 0.2101 0.6061 0.0000
vt 0.2431 0.6467 0.0000
vt 0.2386 0.5843 0.0000
vt 0.2622 0.6326 0.0000
vt 0.2690 0.5691 0.0000
vt 0.2832 0.6228 0.0000
vt 0.3004 0.5613 0.0000
vt 0.3051 0.6178 0.0000
vt 0.3320 0.5613 0.0000
vt 0.3273 0.6178 0.0000
vt 0.3633 0.5691 0.0000
vt 0.3492 0.6228 0.0000
vt 0.3938 0.5843 0.0000
vt 0.3701 0.6326 0.0000
vt 0.4222 0.6061 0.0000
vt 0.3893 0.6467 0.0000
vt 0.4472 0.6330 0.0000
vt 0.4057 0.6642 0.0000
vt 0.4674 0.6636 0.0000
vt 0.4187 0.6840 0.0000
vt 0.4812 0.6961 0.0000
vt 0.4276 0.7049 0.0000
vt 0.4876 0.7296 0.0000
vt 0.4316 0.7255 0.0000
vt 0.4848 0.7626 0.0000
vt 0.4295 0.7441 0.0000
vt 0.0887 0.7280 0.0000
vt 0.0885 0.7721 0.0000
vt 0.0973 0.6840 0.0000
vt 0.1152 0.6408 0.0000
vt 0.1418 0.6001 0.0000
vt 0.1750 0.5641 0.0000
vt 0.2130 0.5352 0.0000
vt 0.2536 0.5151 0.0000
vt 0.2952 0.5048 0.0000
vt 0.3371 0.5048 0.0000
vt 0.3788 0.5151 0.0000
vt 0.4193 0.5352 0.0000
vt 0.4573 0.5641 0.0000
vt 0.4906 0.6000 0.0000
vt 0.5171 0.6408 0.0000
vt 0.5351 0.6840 0.0000
vt 0.5437 0.7280 0.0000
vt 0.5438 0.7721 0.0000
vt 0.0325 0.7216 0.0000
vt 0.0301 0.7719 0.0000
vt 0.0430 0.6688 0.0000
vt 0.0648 0.6158 0.0000
vt 0.0971 0.5657 0.0000
vt 0.1380 0.5216 0.0000
vt 0.1851 0.4861 0.0000
vt 0.2362 0.4612 0.0000
vt 0.2893 0.4485 0.0000
vt 0.3430 0.4484 0.0000
vt 0.3962 0.4612 0.0000
vt 0.4472 0.4860 0.0000
vt 0.4943 0.5216 0.0000
vt 0.5352 0.5657 0.0000
vt 0.5675 0.6157 0.0000
vt 0.5893 0.6688 0.0000
vt 0.5999 0.7215 0.0000
vt 0.6022 0.7719 0.0000
vt 0.0516 0.3960 0.0000
vt 0.0020 0.3960 0.0000
vt 0.0020 0.0020 0.0000
vt 0.0516 0.0020 0.0000
vt 0.1031 0.3960 0.0000
vt 0.1031 0.0020 0.0000
vt 0.1572 0.3960 0.0000
vt 0.1572 0.0020 0.0000
vt 0.2134 0.3960 0.0000
vt 0.2134 0.0020 0.0000
vt 0.2700 0.3960 0.0000
vt 0.2700 0.0020 0.0000
vt 0.3253 0.3960 0.0000
vt 0.3253 0.0020 0.0000
vt 0.3781 0.3960 0.0000
vt 0.3781 0.0020 0.0000
vt 0.4284 0.3960 0.0000
vt 0.4284 0.0020 0.0000
vt 0.4778 0.3960 0.0000
vt 0.4778 0.0020 0.0000
vt 0.5281 0.3960 0.0000
vt 0.5281 0.0020 0.0000
vt 0.5809 0.3960 0.0000
vt 0.5809 0.0020 0.0000
vt 0.6362 0.3960 0.0000
vt 0.6362 0.0020 0.0000
vt 0.6928 0.3960 0.0000
vt 0.6928 0.0020 0.0000
vt 0.7490 0.3960 0.0000
vt 0.7490 0.0020 0.0000
vt 0.8031 0.3960 0.0000
vt 0.8031 0.0020 0.0000
vt 0.8546 0.3960 0.0000
vt 0.8546 0.0020 0.0000
vt 0.9042 0.3960 0.0000
vt 0.9042 0.0020 0.0000
# 126 texture coords

g Sphere001
usemtl wire_148177027
s 1
f 1/1/1 2/2/2 3/3/3 
f 1/1/1 3/3/3 4/4/4 
f 1/1/1 4/4/4 5/5/5 
f 1/1/1 5/5/5 6/6/6 
f 1/1/1 6/6/6 7/7/7 
f 1/1/1 7/7/7 8/8/8 
f 1/1/1 8/8/8 9/9/9 
f 1/1/1 9/9/9 10/10/10 
f 1/1/1 10/10/10 11/11/11 
f 1/1/1 11/11/11 12/12/12 
f 1/1/1 12/12/12 13/13/13 
f 1/1/1 13/13/13 14/14/14 
f 1/1/1 14/14/14 15/15/15 
f 1/1/1 15/15/15 16/16/16 
f 1/1/1 16/16/16 17/17/17 
f 1/1/1 17/17/17 18/18/18 
f 1/1/1 18/18/18 2/2/2 
f 19/19/19 3/20/3 2/21/2 20/22/20 
f 21/23/21 4/24/4 3/20/3 19/19/19 
f 22/25/22 5/26/5 4/24/4 21/23/21 
f 23/27/23 6/28/6 5/26/5 22/25/22 
f 24/29/24 7/30/7 6/28/6 23/27/23 
f 25/31/25 8/32/8 7/30/7 24/29/24 
f 26/33/26 9/34/9 8/32/8 25/31/25 
f 27/35/27 10/36/10 9/34/9 26/33/26 
f 28/37/28 11/38/11 10/36/10 27/35/27 
f 29/39/29 12/40/12 11/38/11 28/37/28 
f 30/41/30 13/42/13 12/40/12 29/39/29 
f 31/43/31 14/44/14 13/42/13 30/41/30 
f 32/45/32 15/46/15 14/44/14 31/43/31 
f 33/47/33 16/48/16 15/46/15 32/45/32 
f 34/49/34 17/50/17 16/48/16 33/47/33 
f 35/51/35 18/52/18 17/50/17 34/49/34 
f 20/53/20 2/54/2 18/52/18 35/51/35 
f 36/55/36 19/19/19 20/22/20 37/56/37 
f 38/57/38 21/23/21 19/19/19 36/55/36 
f 39/58/39 22/25/22 21/23/21 38/57/38 
f 40/59/40 23/27/23 22/25/22 39/58/39 
f 41/60/41 24/29/24 23/27/23 40/59/40 
f 42/61/42 25/31/25 24/29/24 41/60/41 
f 43/62/43 26/33/26 25/31/25 42/61/42 
f 44/63/44 27/35/27 26/33/26 43/62/43 
f 45/64/45 28/37/28 27/35/27 44/63/44 
f 46/65/46 29/39/29 28/37/28 45/64/45 
f 47/66/47 30/41/30 29/39/29 46/65/46 
f 48/67/48 31/43/31 30/41/30 47/66/47 
f 49/68/49 32/45/32 31/43/31 48/67/48 
f 50/69/50 33/47/33 32/45/32 49/68/49 
f 51/70/51 34/49/34 33/47/33 50/69/50 
f 52/71/52 35/51/35 34/49/34 51/70/51 
f 37/72/37 20/53/20 35/51/35 52/71/52 
f 53/73/53 36/55/36 37/56/37 54/74/54 
f 55/75/55 38/57/38 36/55/36 53/73/53 
f 56/76/56 39/58/39 38/57/38 55/75/55 
f 57/77/57 40/59/40 39/58/39 56/76/56 
f 58/78/58 41/60/41 40/59/40 57/77/57 
f 59/79/59 42/61/42 41/60/41 58/78/58 
f 60/80/60 43/62/43 42/61/42 59/79/59 
f 61/81/61 44/63/44 43/62/43 60/80/60 
f 62/82/62 45/64/45 44/63/44 61/81/61 
f 63/83/63 46/65/46 45/64/45 62/82/62 
f 64/84/64 47/66/47 46/65/46 63/83/63 
f 65/85/65 48/67/48 47/66/47 64/84/64 
f 66/86/66 49/68/49 48/67/48 65/85/65 
f 67/87/67 50/69/50 49/68/49 66/86/66 
f 68/88/68 51/70/51 50/69/50 67/87/67 
f 69/89/69 52/71/52 51/70/51 68/88/68 
f 54/90/54 37/72/37 52/71/52 69/89/69 
f 53/91/53 54/92/54 70/93/70 71/94/71 
f 55/95/55 53/91/53 71/94/71 72/96/72 
f 56/97/56 55/95/55 72/96/72 73/98/73 
f 57/99/57 56/97/56 73/98/73 74/100/74 
f 58/101/58 57/99/57 74/100/74 75/102/75 
f 59/103/59 58/101/58 75/102/75 76/104/76 
f 60/105/60 59/103/59 76/104/76 77/106/77 
f 61/107/61 60/105/60 77/106/77 78/108/78 
f 62/109/62 61/107/61 78/108/78 79/110/79 
f 63/111/63 62/109/62 79/110/79 80/112/80 
f 64/113/64 63/111/63 80/112/80 81/114/81 
f 65/115/65 64/113/64 81/114/81 82/116/82 
f 66/117/66 65/115/65 82/116/82 83/118/83 
f 67/119/67 66/117/66 83/118/83 84/120/84 
f 68/121/68 67/119/67 84/120/84 85/122/85 
f 69/123/69 68/121/68 85/122/85 86/124/86 
f 54/125/54 69/123/69 86/124/86 70/126/70 
# 68 polygons - 17 triangles

